<svg width="227" height="201" viewBox="0 0 227 201" fill="none" xmlns="http://www.w3.org/2000/svg">
<path d="M102 112L86.5 123L101 141.5L109 136.5V133L112.5 135L123 126.5L102 112Z" fill="#FDC469"/>
<path d="M82 165L64 176L79.5 199.5L90 194L84.5 184.5L95 190L103.5 181L82 165Z" fill="#FDC469"/>
<path d="M117 139.5L103.5 160.5C106.167 168.167 111.5 183.4 111.5 183C111.5 182.6 117.833 175.167 121 171.5L117.5 162.5L124 156.5L138 162L141 150.5L117 139.5Z" fill="#FDC469"/>
<path d="M102 112L86.5 123L101 141.5L109 136.5V133L112.5 135L123 126.5L102 112Z" stroke="#F9C666"/>
<path d="M82 165L64 176L79.5 199.5L90 194L84.5 184.5L95 190L103.5 181L82 165Z" stroke="#F9C666"/>
<path d="M117 139.5L103.5 160.5C106.167 168.167 111.5 183.4 111.5 183C111.5 182.6 117.833 175.167 121 171.5L117.5 162.5L124 156.5L138 162L141 150.5L117 139.5Z" stroke="#F9C666"/>
<path d="M14.5 73L1 93.5L8.5 113L19.5 101L14.5 88.5L26.5 96L33 87.5L14.5 73Z" fill="#FDC469" stroke="#F9C666"/>
<path d="M55 55L39.5 66L54 84.5L62 79.5V76L65.5 78L76 69.5L55 55Z" fill="#FDC469"/>
<path d="M35 108L17 119L32.5 142.5L43 137L37.5 127.5L48 133L56.5 124L35 108Z" fill="#FDC469"/>
<path d="M70 82.5L56.5 103.5C59.1667 111.167 64.5 126.4 64.5 126C64.5 125.6 70.8333 118.167 74 114.5L70.5 105.5L77 99.5L91 105L94 93.5L70 82.5Z" fill="#FDC469"/>
<path d="M55 55L39.5 66L54 84.5L62 79.5V76L65.5 78L76 69.5L55 55Z" stroke="#F9C666"/>
<path d="M35 108L17 119L32.5 142.5L43 137L37.5 127.5L48 133L56.5 124L35 108Z" stroke="#F9C666"/>
<path d="M70 82.5L56.5 103.5C59.1667 111.167 64.5 126.4 64.5 126C64.5 125.6 70.8333 118.167 74 114.5L70.5 105.5L77 99.5L91 105L94 93.5L70 82.5Z" stroke="#F9C666"/>
<path d="M146.5 76L133 96.5L140.5 116L151.5 104L146.5 91.5L158.5 99L165 90.5L146.5 76Z" fill="#FDC469" stroke="#F9C666"/>
<path d="M187 58L171.5 69L186 87.5L194 82.5V79L197.5 81L208 72.5L187 58Z" fill="#FDC469"/>
<path d="M167 111L149 122L164.5 145.5L175 140L169.5 130.5L180 136L188.5 127L167 111Z" fill="#FDC469"/>
<path d="M202 85.5L188.5 106.5C191.167 114.167 196.5 129.4 196.5 129C196.5 128.6 202.833 121.167 206 117.5L202.5 108.5L209 102.5L223 108L226 96.5L202 85.5Z" fill="#FDC469"/>
<path d="M187 58L171.5 69L186 87.5L194 82.5V79L197.5 81L208 72.5L187 58Z" stroke="#F9C666"/>
<path d="M167 111L149 122L164.5 145.5L175 140L169.5 130.5L180 136L188.5 127L167 111Z" stroke="#F9C666"/>
<path d="M202 85.5L188.5 106.5C191.167 114.167 196.5 129.4 196.5 129C196.5 128.6 202.833 121.167 206 117.5L202.5 108.5L209 102.5L223 108L226 96.5L202 85.5Z" stroke="#F9C666"/>
<path d="M140 1L124.5 12L139 30.5L147 25.5V22L150.5 24L161 15.5L140 1Z" fill="#FDC469"/>
<path d="M120 54L102 65L117.5 88.5L128 83L122.5 73.5L133 79L141.5 70L120 54Z" fill="#FDC469"/>
<path d="M155 28.5L141.5 49.5C144.167 57.1667 149.5 72.4 149.5 72C149.5 71.6 155.833 64.1667 159 60.5L155.5 51.5L162 45.5L176 51L179 39.5L155 28.5Z" fill="#FDC469"/>
<path d="M140 1L124.5 12L139 30.5L147 25.5V22L150.5 24L161 15.5L140 1Z" stroke="#F9C666"/>
<path d="M120 54L102 65L117.5 88.5L128 83L122.5 73.5L133 79L141.5 70L120 54Z" stroke="#F9C666"/>
<path d="M155 28.5L141.5 49.5C144.167 57.1667 149.5 72.4 149.5 72C149.5 71.6 155.833 64.1667 159 60.5L155.5 51.5L162 45.5L176 51L179 39.5L155 28.5Z" stroke="#F9C666"/>
</svg>
